<svg width="16" height="16" viewBox="0 0 16 16" fill="none" xmlns="http://www.w3.org/2000/svg">
<path d="M8 7.8C8.3625 7.8 8.67188 7.66333 8.92813 7.39C9.18438 7.11667 9.3125 6.78667 9.3125 6.4C9.3125 6.01333 9.18438 5.68333 8.92813 5.41C8.67188 5.13667 8.3625 5 8 5C7.6375 5 7.32812 5.13667 7.07187 5.41C6.81562 5.68333 6.6875 6.01333 6.6875 6.4C6.6875 6.78667 6.81562 7.11667 7.07187 7.39C7.32812 7.66333 7.6375 7.8 8 7.8ZM8 14.42C9.6625 12.8067 10.8906 11.3433 11.6844 10.03C12.4781 8.71667 12.875 7.56 12.875 6.56C12.875 4.98667 12.4031 3.7 11.4594 2.7C10.5156 1.7 9.3625 1.2 8 1.2C6.6375 1.2 5.48437 1.7 4.54062 2.7C3.59687 3.7 3.125 4.98667 3.125 6.56C3.125 7.56 3.53125 8.71667 4.34375 10.03C5.15625 11.3433 6.375 12.8067 8 14.42ZM8 16C5.9875 14.1733 4.48438 12.4767 3.49063 10.91C2.49688 9.34333 2 7.89333 2 6.56C2 4.56 2.60312 2.96667 3.80937 1.78C5.01562 0.593333 6.4125 0 8 0C9.5875 0 10.9844 0.593333 12.1906 1.78C13.3969 2.96667 14 4.56 14 6.56C14 7.89333 13.5031 9.34333 12.5094 10.91C11.5156 12.4767 10.0125 14.1733 8 16Z" fill="#222222"/>
</svg>
