<svg width="42" height="61" viewBox="0 0 42 61" fill="none" xmlns="http://www.w3.org/2000/svg">
<path d="M21 57.2188L19.7188 56.0625C17.5104 54.0417 15.6875 52.2969 14.25 50.8281C12.8125 49.3594 11.6667 48.0469 10.8125 46.8906C9.95833 45.7344 9.35937 44.6875 9.01562 43.75C8.67187 42.8125 8.5 41.8646 8.5 40.9062C8.5 39.0312 9.13021 37.4635 10.3906 36.2031C11.651 34.9427 13.2083 34.3125 15.0625 34.3125C16.25 34.3125 17.349 34.5937 18.3594 35.1562C19.3698 35.7187 20.25 36.5312 21 37.5938C21.875 36.4688 22.8021 35.6406 23.7812 35.1094C24.7604 34.5781 25.8125 34.3125 26.9375 34.3125C28.7917 34.3125 30.349 34.9427 31.6094 36.2031C32.8698 37.4635 33.5 39.0312 33.5 40.9062C33.5 41.8646 33.3281 42.8125 32.9844 43.75C32.6406 44.6875 32.0417 45.7344 31.1875 46.8906C30.3333 48.0469 29.1875 49.3594 27.75 50.8281C26.3125 52.2969 24.4896 54.0417 22.2812 56.0625L21 57.2188Z" fill="#E25225"/>
<g filter="url(#filter0_d_46_4416)">
<path d="M21 27.2188L19.7188 26.0625C17.5104 24.0417 15.6875 22.2969 14.25 20.8281C12.8125 19.3594 11.6667 18.0469 10.8125 16.8906C9.95833 15.7344 9.35937 14.6875 9.01562 13.75C8.67187 12.8125 8.5 11.8646 8.5 10.9062C8.5 9.03125 9.13021 7.46354 10.3906 6.20312C11.651 4.94271 13.2083 4.3125 15.0625 4.3125C16.25 4.3125 17.349 4.59375 18.3594 5.15625C19.3698 5.71875 20.25 6.53125 21 7.59375C21.875 6.46875 22.8021 5.64062 23.7812 5.10937C24.7604 4.57812 25.8125 4.3125 26.9375 4.3125C28.7917 4.3125 30.349 4.94271 31.6094 6.20312C32.8698 7.46354 33.5 9.03125 33.5 10.9062C33.5 11.8646 33.3281 12.8125 32.9844 13.75C32.6406 14.6875 32.0417 15.7344 31.1875 16.8906C30.3333 18.0469 29.1875 19.3594 27.75 20.8281C26.3125 22.2969 24.4896 24.0417 22.2812 26.0625L21 27.2188ZM21 24.75C23.1042 22.8125 24.8385 21.151 26.2031 19.7656C27.5677 18.3802 28.651 17.1667 29.4531 16.125C30.2552 15.0833 30.8177 14.1562 31.1406 13.3437C31.4635 12.5312 31.625 11.7187 31.625 10.9062C31.625 9.53125 31.1875 8.40104 30.3125 7.51562C29.4375 6.63021 28.3125 6.1875 26.9375 6.1875C25.875 6.1875 24.8854 6.51562 23.9688 7.17187C23.0521 7.82812 22.3125 8.75 21.75 9.9375H20.2188C19.6771 8.77083 18.9479 7.85417 18.0312 7.1875C17.1146 6.52083 16.125 6.1875 15.0625 6.1875C13.6875 6.1875 12.5625 6.63021 11.6875 7.51562C10.8125 8.40104 10.375 9.53125 10.375 10.9062C10.375 11.7187 10.5365 12.5365 10.8594 13.3594C11.1823 14.1823 11.7448 15.1198 12.5469 16.1719C13.349 17.224 14.4375 18.4375 15.8125 19.8125C17.1875 21.1875 18.9167 22.8333 21 24.75Z" fill="white"/>
</g>
<defs>
<filter id="filter0_d_46_4416" x="0.5" y="-3.6875" width="41" height="38.9062" filterUnits="userSpaceOnUse" color-interpolation-filters="sRGB">
<feFlood flood-opacity="0" result="BackgroundImageFix"/>
<feColorMatrix in="SourceAlpha" type="matrix" values="0 0 0 0 0 0 0 0 0 0 0 0 0 0 0 0 0 0 127 0" result="hardAlpha"/>
<feOffset/>
<feGaussianBlur stdDeviation="4"/>
<feComposite in2="hardAlpha" operator="out"/>
<feColorMatrix type="matrix" values="0 0 0 0 0 0 0 0 0 0 0 0 0 0 0 0 0 0 0.4 0"/>
<feBlend mode="normal" in2="BackgroundImageFix" result="effect1_dropShadow_46_4416"/>
<feBlend mode="normal" in="SourceGraphic" in2="effect1_dropShadow_46_4416" result="shape"/>
</filter>
</defs>
</svg>
