<svg width="24" height="24" viewBox="0 0 24 24" fill="none" xmlns="http://www.w3.org/2000/svg">
<path fill-rule="evenodd" clip-rule="evenodd" d="M21.6001 12.2263C21.6001 11.5165 21.5359 10.836 21.4188 10.1807H12.001V14.0488H17.382C17.1505 15.2981 16.445 16.3579 15.3866 17.0663V19.5748H18.6188C20.5097 17.8346 21.6001 15.2703 21.6001 12.2249V12.2263Z" fill="#4377BC"/>
<path fill-rule="evenodd" clip-rule="evenodd" d="M11.9988 22.0001C14.6984 22.0001 16.9629 21.1049 18.6167 19.578L15.3845 17.0695C14.4893 17.6691 13.3431 18.0246 11.9988 18.0246C9.39409 18.0246 7.18953 16.2649 6.40308 13.9014H3.06348V16.4922C4.70888 19.7607 8.09032 22.0015 12.0002 22.0015L11.9988 22.0001Z" fill="#36A053"/>
<path fill-rule="evenodd" clip-rule="evenodd" d="M6.40494 13.8998C6.20554 13.3002 6.09119 12.6588 6.09119 11.9992C6.09119 11.3396 6.20414 10.6996 6.40494 10.0986V7.50781H3.06393C2.38625 8.85899 2 10.3859 2 11.9992C2 13.6125 2.38625 15.1394 3.06393 16.4906L6.40494 13.8998Z" fill="#EFB61A"/>
<path fill-rule="evenodd" clip-rule="evenodd" d="M11.9988 5.97685C13.4672 5.97685 14.7849 6.48163 15.8209 7.47166L18.6892 4.60336C16.9588 2.99142 14.6942 2 11.9988 2C8.09032 2 4.70888 4.24081 3.06348 7.50931L6.40448 10.1001C7.19093 7.7366 9.39549 5.97685 12.0002 5.97685H11.9988Z" fill="#DA4334"/>
</svg>
