<svg width="6" height="24" viewBox="0 0 6 24" fill="none" xmlns="http://www.w3.org/2000/svg">
<path d="M3.03816 4.0086C4.14271 4.01572 5.04389 3.12703 5.051 2.02364C5.05811 0.920259 4.16847 0.0200161 3.06392 0.0128946C1.95938 0.0057731 1.0582 0.894469 1.05108 1.99785C1.04397 3.10124 1.93361 4.00148 3.03816 4.0086Z" fill="#222222"/>
<path d="M2.97368 13.9978C4.07823 14.005 4.97941 13.1163 4.98653 12.0129C4.99366 10.9095 4.10402 10.0093 2.99947 10.0021C1.89492 9.99502 0.993739 10.8837 0.986617 11.9871C0.979496 13.0905 1.86913 13.9907 2.97368 13.9978Z" fill="#222222"/>
<path d="M2.90923 23.9876C4.01377 23.9947 4.91496 23.106 4.92208 22.0026C4.9292 20.8992 4.03956 19.999 2.93502 19.9919C1.83047 19.9848 0.929285 20.8735 0.922164 21.9769C0.915043 23.0802 1.80468 23.9805 2.90923 23.9876Z" fill="#222222"/>
</svg>
