<svg width="24" height="24" viewBox="0 0 24 24" fill="none" xmlns="http://www.w3.org/2000/svg">
<g clip-path="url(#clip0_1477_579)">
<path d="M10.775 20.6496H3V3.09961H9.1C9.21667 2.51628 9.50417 2.03711 9.9625 1.66211C10.4208 1.28711 10.95 1.09961 11.55 1.09961C12.15 1.09961 12.6792 1.28711 13.1375 1.66211C13.5958 2.03711 13.8833 2.51628 14 3.09961H20.55V9.67461H19.05V4.59961H16.4V7.84961H7.15V4.59961H4.5V19.1496H10.775V20.6496ZM15.5 20.0246L11.5 16.0246L12.575 14.9496L15.5 17.8746L21.475 11.8996L22.55 12.9746L15.5 20.0246ZM12 4.49961C12.2833 4.49961 12.5208 4.40378 12.7125 4.21211C12.9042 4.02044 13 3.78294 13 3.49961C13 3.21628 12.9042 2.97878 12.7125 2.78711C12.5208 2.59544 12.2833 2.49961 12 2.49961C11.7167 2.49961 11.4792 2.59544 11.2875 2.78711C11.0958 2.97878 11 3.21628 11 3.49961C11 3.78294 11.0958 4.02044 11.2875 4.21211C11.4792 4.40378 11.7167 4.49961 12 4.49961Z" fill="#222222"/>
</g>
<defs>
<clipPath id="clip0_1477_579">
<rect width="24" height="24" fill="white"/>
</clipPath>
</defs>
</svg>
