<svg width="24" height="417" viewBox="0 0 24 417" fill="none" xmlns="http://www.w3.org/2000/svg">
<path d="M7 13.7C6.53333 13.7 6.13333 13.5333 5.8 13.2C5.46667 12.8667 5.3 12.4667 5.3 12C5.3 11.5333 5.46667 11.1333 5.8 10.8C6.13333 10.4667 6.53333 10.3 7 10.3C7.46667 10.3 7.86667 10.4667 8.2 10.8C8.53333 11.1333 8.7 11.5333 8.7 12C8.7 12.4667 8.53333 12.8667 8.2 13.2C7.86667 13.5333 7.46667 13.7 7 13.7ZM7 18C5.33333 18 3.91667 17.4167 2.75 16.25C1.58333 15.0833 1 13.6667 1 12C1 10.3333 1.58333 8.91667 2.75 7.75C3.91667 6.58333 5.33333 6 7 6C8.2 6 9.25 6.28333 10.15 6.85C11.05 7.41667 11.7583 8.275 12.275 9.425H21.175L24 12.25L19.825 16.075L17.625 14.475L15.425 16.075L13.55 14.575H12.275C11.8583 15.575 11.2042 16.3958 10.3125 17.0375C9.42083 17.6792 8.31667 18 7 18ZM7 16.5C7.96667 16.5 8.85833 16.1792 9.675 15.5375C10.4917 14.8958 11.0167 14.075 11.25 13.075H14.1L15.45 14.2L17.65 12.625L19.7 14.175L21.825 12.2L20.55 10.925H11.25C11.05 9.99167 10.55 9.1875 9.75 8.5125C8.95 7.8375 8.03333 7.5 7 7.5C5.75 7.5 4.6875 7.9375 3.8125 8.8125C2.9375 9.6875 2.5 10.75 2.5 12C2.5 13.25 2.9375 14.3125 3.8125 15.1875C4.6875 16.0625 5.75 16.5 7 16.5Z" fill="#222222"/>
<path d="M12.1 242.825C12.3667 242.825 12.5917 242.733 12.775 242.55C12.9583 242.367 13.05 242.142 13.05 241.875C13.05 241.608 12.9583 241.383 12.775 241.2C12.5917 241.017 12.3667 240.925 12.1 240.925C11.8333 240.925 11.6083 241.017 11.425 241.2C11.2417 241.383 11.15 241.608 11.15 241.875C11.15 242.142 11.2417 242.367 11.425 242.55C11.6083 242.733 11.8333 242.825 12.1 242.825ZM11.225 239.175H12.7C12.7 238.742 12.7542 238.346 12.8625 237.988C12.9708 237.629 13.3083 237.217 13.875 236.75C14.3917 236.317 14.7583 235.892 14.975 235.475C15.1917 235.058 15.3 234.6 15.3 234.1C15.3 233.217 15.0125 232.508 14.4375 231.975C13.8625 231.442 13.1 231.175 12.15 231.175C11.3333 231.175 10.6125 231.379 9.9875 231.787C9.3625 232.196 8.90833 232.758 8.625 233.475L9.95 233.975C10.1333 233.508 10.4083 233.146 10.775 232.887C11.1417 232.629 11.575 232.5 12.075 232.5C12.6417 232.5 13.1 232.654 13.45 232.963C13.8 233.271 13.975 233.667 13.975 234.15C13.975 234.517 13.8667 234.863 13.65 235.188C13.4333 235.512 13.1167 235.85 12.7 236.2C12.2 236.633 11.8292 237.062 11.5875 237.488C11.3458 237.913 11.225 238.475 11.225 239.175ZM12 247C10.6333 247 9.34167 246.737 8.125 246.212C6.90833 245.688 5.84583 244.971 4.9375 244.062C4.02917 243.154 3.3125 242.092 2.7875 240.875C2.2625 239.658 2 238.367 2 237C2 235.617 2.2625 234.317 2.7875 233.1C3.3125 231.883 4.02917 230.825 4.9375 229.925C5.84583 229.025 6.90833 228.312 8.125 227.787C9.34167 227.262 10.6333 227 12 227C13.3833 227 14.6833 227.262 15.9 227.787C17.1167 228.312 18.175 229.025 19.075 229.925C19.975 230.825 20.6875 231.883 21.2125 233.1C21.7375 234.317 22 235.617 22 237C22 238.367 21.7375 239.658 21.2125 240.875C20.6875 242.092 19.975 243.154 19.075 244.062C18.175 244.971 17.1167 245.688 15.9 246.212C14.6833 246.737 13.3833 247 12 247ZM12 245.5C14.3667 245.5 16.375 244.671 18.025 243.013C19.675 241.354 20.5 239.35 20.5 237C20.5 234.633 19.675 232.625 18.025 230.975C16.375 229.325 14.3667 228.5 12 228.5C9.65 228.5 7.64583 229.325 5.9875 230.975C4.32917 232.625 3.5 234.633 3.5 237C3.5 239.35 4.32917 241.354 5.9875 243.013C7.64583 244.671 9.65 245.5 12 245.5Z" fill="#222222"/>
<path d="M11.325 298H12.825V292H11.325V298ZM12 290.15C12.2333 290.15 12.4292 290.075 12.5875 289.925C12.7458 289.775 12.825 289.583 12.825 289.35C12.825 289.117 12.7458 288.917 12.5875 288.75C12.4292 288.583 12.2333 288.5 12 288.5C11.7667 288.5 11.5708 288.583 11.4125 288.75C11.2542 288.917 11.175 289.117 11.175 289.35C11.175 289.583 11.2542 289.775 11.4125 289.925C11.5708 290.075 11.7667 290.15 12 290.15ZM12 303C10.6333 303 9.34167 302.737 8.125 302.212C6.90833 301.688 5.84583 300.971 4.9375 300.062C4.02917 299.154 3.3125 298.092 2.7875 296.875C2.2625 295.658 2 294.358 2 292.975C2 291.608 2.2625 290.317 2.7875 289.1C3.3125 287.883 4.02917 286.825 4.9375 285.925C5.84583 285.025 6.90833 284.312 8.125 283.787C9.34167 283.262 10.6417 283 12.025 283C13.3917 283 14.6833 283.262 15.9 283.787C17.1167 284.312 18.175 285.025 19.075 285.925C19.975 286.825 20.6875 287.883 21.2125 289.1C21.7375 290.317 22 291.617 22 293C22 294.367 21.7375 295.658 21.2125 296.875C20.6875 298.092 19.975 299.154 19.075 300.062C18.175 300.971 17.1167 301.688 15.9 302.212C14.6833 302.737 13.3833 303 12 303ZM12.025 301.5C14.375 301.5 16.375 300.671 18.025 299.013C19.675 297.354 20.5 295.342 20.5 292.975C20.5 290.625 19.675 288.625 18.025 286.975C16.375 285.325 14.3667 284.5 12 284.5C9.65 284.5 7.64583 285.325 5.9875 286.975C4.32917 288.625 3.5 290.633 3.5 293C3.5 295.35 4.32917 297.354 5.9875 299.013C7.64583 300.671 9.65833 301.5 12.025 301.5Z" fill="#222222"/>
<path d="M4 132V130.5H6.1V122.85C6.1 121.483 6.5125 120.246 7.3375 119.137C8.1625 118.029 9.25 117.333 10.6 117.05V115H13.4V117.05C14.75 117.333 15.8417 118.029 16.675 119.137C17.5083 120.246 17.925 121.483 17.925 122.85V130.5H20V132H4ZM12 135C11.4667 135 11 134.804 10.6 134.413C10.2 134.021 10 133.55 10 133H14C14 133.55 13.8042 134.021 13.4125 134.413C13.0208 134.804 12.55 135 12 135ZM7.6 130.5H16.425V122.85C16.425 121.6 16.0042 120.546 15.1625 119.688C14.3208 118.829 13.275 118.4 12.025 118.4C10.7917 118.4 9.74583 118.829 8.8875 119.688C8.02917 120.546 7.6 121.6 7.6 122.85V130.5Z" fill="#222222"/>
<path d="M12 78C10.6167 78 9.31667 77.7375 8.1 77.2125C6.88333 76.6875 5.825 75.975 4.925 75.075C4.025 74.175 3.3125 73.1167 2.7875 71.9C2.2625 70.6833 2 69.3833 2 68C2 66.6167 2.2625 65.3167 2.7875 64.1C3.3125 62.8833 4.025 61.825 4.925 60.925C5.825 60.025 6.88333 59.3125 8.1 58.7875C9.31667 58.2625 10.6167 58 12 58C13.3833 58 14.6833 58.2625 15.9 58.7875C17.1167 59.3125 18.175 60.025 19.075 60.925C19.975 61.825 20.6875 62.8833 21.2125 64.1C21.7375 65.3167 22 66.6167 22 68C22 69.3833 21.7375 70.6833 21.2125 71.9C20.6875 73.1167 19.975 74.175 19.075 75.075C18.175 75.975 17.1167 76.6875 15.9 77.2125C14.6833 77.7375 13.3833 78 12 78ZM12 76.5C14.3667 76.5 16.375 75.675 18.025 74.025C19.675 72.375 20.5 70.3667 20.5 68C20.5 66.9833 20.325 66.0083 19.975 65.075C19.625 64.1417 19.1333 63.2917 18.5 62.525L6.525 74.5C7.275 75.15 8.12083 75.6458 9.0625 75.9875C10.0042 76.3292 10.9833 76.5 12 76.5ZM5.525 73.475L17.475 61.525C16.7083 60.875 15.8583 60.375 14.925 60.025C13.9917 59.675 13.0167 59.5 12 59.5C9.63333 59.5 7.625 60.325 5.975 61.975C4.325 63.625 3.5 65.6333 3.5 68C3.5 69.0167 3.68333 69.9958 4.05 70.9375C4.41667 71.8792 4.90833 72.725 5.525 73.475Z" fill="#222222"/>
<path d="M16.65 353.375L15.575 352.3L18.125 349.75H9.375V348.25H18.075L15.525 345.7L16.6 344.625L21 349.025L16.65 353.375ZM3 358V340H11.775V341.5H4.5V356.5H11.775V358H3Z" fill="#222222"/>
<path d="M12 415C10.6333 415 9.34167 414.737 8.125 414.212C6.90833 413.688 5.84583 412.971 4.9375 412.062C4.02917 411.154 3.3125 410.092 2.7875 408.875C2.2625 407.658 2 406.367 2 405C2 403.617 2.2625 402.317 2.7875 401.1C3.3125 399.883 4.02917 398.825 4.9375 397.925C5.84583 397.025 6.90833 396.312 8.125 395.787C9.34167 395.262 10.6333 395 12 395C13.3833 395 14.6833 395.262 15.9 395.787C17.1167 396.312 18.175 397.025 19.075 397.925C19.975 398.825 20.6875 399.883 21.2125 401.1C21.7375 402.317 22 403.617 22 405C22 406.367 21.7375 407.658 21.2125 408.875C20.6875 410.092 19.975 411.154 19.075 412.062C18.175 412.971 17.1167 413.688 15.9 414.212C14.6833 414.737 13.3833 415 12 415ZM12 413.5C14.3667 413.5 16.375 412.671 18.025 411.013C19.675 409.354 20.5 407.35 20.5 405C20.5 402.633 19.675 400.625 18.025 398.975C16.375 397.325 14.3667 396.5 12 396.5C9.65 396.5 7.64583 397.325 5.9875 398.975C4.32917 400.625 3.5 402.633 3.5 405C3.5 407.35 4.32917 409.354 5.9875 411.013C7.64583 412.671 9.65 413.5 12 413.5Z" fill="#222222"/>
<path d="M18.25 181.75V180.25H22V181.75H18.25ZM19.5 189L16.475 186.75L17.375 185.55L20.4 187.8L19.5 189ZM17.45 176.425L16.55 175.225L19.5 173L20.4 174.2L17.45 176.425ZM5.25 188V184H2V178H8L13 175V187L8 184H6.75V188H5.25ZM14 184.35V177.65C14.45 178.05 14.8125 178.538 15.0875 179.113C15.3625 179.688 15.5 180.317 15.5 181C15.5 181.683 15.3625 182.312 15.0875 182.887C14.8125 183.462 14.45 183.95 14 184.35ZM3.5 182.5H8.4L11.5 184.35V177.65L8.4 179.5H3.5V182.5Z" fill="#222222"/>
</svg>
