<svg width="125" height="50" viewBox="0 0 125 50" fill="none" xmlns="http://www.w3.org/2000/svg">
<path fill-rule="evenodd" clip-rule="evenodd" d="M9.95 16.7H15.05V25H23.7V9.5L12.5 1L1 9.5V25H9.95V16.7ZM8.25 23.3V15H16.75V23.3H22V10.3571L12.5 3.1145L2.7 10.3571V23.3H8.25Z" fill="#999999"/>
<path d="M32.7183 19.8355H42.2817V18.3224H32.7183V19.8355ZM32.7183 14.3092H42.2817V12.8289H32.7183V14.3092ZM28 25V0H40.825L47 6.41447V25H28ZM40.1283 7.07237V1.48026H29.425V23.5197H45.575V7.07237H40.1283ZM29.425 1.48026V7.07237V1.48026V23.5197V1.48026Z" fill="#999999"/>
<g clip-path="url(#clip0_1_33522)">
<path d="M65.3289 14.3092H70.8224V12.9934H65.3289V14.3092ZM65.3289 17.6974H70.8224V16.3487H65.3289V17.6974ZM65.3947 6.57895H75V25H50V6.57895H59.6053V0H65.3947V6.57895ZM61.1184 8.05921H63.9145V1.48026H61.1184V8.05921ZM58.4211 16.3487C58.8596 16.3487 59.2379 16.1897 59.5559 15.8717C59.8739 15.5537 60.0329 15.1754 60.0329 14.7368C60.0329 14.2763 59.8739 13.8871 59.5559 13.5691C59.2379 13.2511 58.8596 13.0921 58.4211 13.0921C57.9605 13.0921 57.5713 13.2511 57.2533 13.5691C56.9353 13.8871 56.7763 14.2763 56.7763 14.7368C56.7763 15.1754 56.9353 15.5537 57.2533 15.8717C57.5713 16.1897 57.9605 16.3487 58.4211 16.3487V16.3487ZM54.6053 19.8355H62.0724V19.5395C62.0724 19.1886 61.9846 18.8761 61.8092 18.602C61.6338 18.3279 61.4035 18.136 61.1184 18.0263C60.5044 17.807 59.9945 17.659 59.5888 17.5822C59.1831 17.5055 58.7939 17.4671 58.4211 17.4671C58.0044 17.4671 57.5658 17.511 57.1053 17.5987C56.6447 17.6864 56.1404 17.8289 55.5921 18.0263C55.2851 18.136 55.0439 18.3279 54.8684 18.602C54.693 18.8761 54.6053 19.1886 54.6053 19.5395V19.8355ZM59.6053 8.05921H51.4803V23.5197H73.5197V8.05921H65.3947V9.57237H59.6053V8.05921Z" fill="#999999"/>
</g>
<path d="M85.9779 20.3595L81.7162 16.2745L82.7985 15.2614L85.9779 18.268L92.0662 12.3529L93.1485 13.4314L85.9779 20.3595ZM76 25V2.28758H80.4647V0H82.1559V2.28758H92.9118V0H94.5691V2.28758H99V25H76ZM77.5221 23.5294H97.4779V10.1307H77.5221V23.5294ZM77.5221 8.66013H97.4779V3.79085H77.5221V8.66013ZM77.5221 8.66013V3.79085V8.66013Z" fill="#999999"/>
<path d="M112.5 12.2281C111.018 12.2281 109.798 11.7456 108.839 10.7807C107.881 9.81579 107.402 8.58714 107.402 7.09474C107.402 5.60234 107.881 4.38012 108.839 3.42807C109.798 2.47602 111.018 2 112.5 2C113.982 2 115.202 2.47602 116.161 3.42807C117.119 4.38012 117.598 5.60234 117.598 7.09474C117.598 8.58714 117.119 9.81579 116.161 10.7807C115.202 11.7456 113.982 12.2281 112.5 12.2281ZM101 24V21.0667C101 20.2433 101.217 19.5228 101.652 18.9053C102.086 18.2877 102.648 17.8117 103.338 17.4772C104.974 16.7567 106.539 16.2164 108.034 15.8561C109.529 15.4959 111.018 15.3158 112.5 15.3158C113.982 15.3158 115.471 15.5023 116.966 15.8754C118.461 16.2485 120.013 16.7953 121.623 17.5158C122.339 17.8503 122.914 18.3199 123.348 18.9246C123.783 19.5292 124 20.2433 124 21.0667V24H101ZM102.725 22.2632H122.275V21.0667C122.275 20.6807 122.147 20.3012 121.892 19.9281C121.636 19.555 121.304 19.2655 120.895 19.0597C119.387 18.3135 117.962 17.7924 116.621 17.4965C115.279 17.2006 113.906 17.0526 112.5 17.0526C111.094 17.0526 109.708 17.2006 108.341 17.4965C106.974 17.7924 105.549 18.3135 104.067 19.0597C103.683 19.2655 103.364 19.555 103.108 19.9281C102.853 20.3012 102.725 20.6807 102.725 21.0667V22.2632ZM112.5 10.4912C113.446 10.4912 114.238 10.1696 114.877 9.52632C115.516 8.88304 115.835 8.07252 115.835 7.09474C115.835 6.14269 115.516 5.34503 114.877 4.70175C114.238 4.05848 113.446 3.73684 112.5 3.73684C111.554 3.73684 110.762 4.05848 110.123 4.70175C109.484 5.34503 109.165 6.14269 109.165 7.09474C109.165 8.07252 109.484 8.88304 110.123 9.52632C110.762 10.1696 111.554 10.4912 112.5 10.4912Z" fill="#999999"/>
<g clip-path="url(#clip1_1_33522)">
<path fill-rule="evenodd" clip-rule="evenodd" d="M10.45 41.7H15.55V50H24.2V34.5L13 26L1.5 34.5V50H10.45V41.7Z" fill="black"/>
<path fill-rule="evenodd" clip-rule="evenodd" d="M9.95 41.7H15.05V50H23.7V34.5L12.5 26L1 34.5V50H9.95V41.7ZM8.25 48.3V40H16.75V48.3H22V35.3571L12.5 28.1145L2.7 35.3571V48.3H8.25Z" fill="black"/>
</g>
<path d="M33.2183 44.8355H42.7817V43.3224H33.2183V44.8355ZM33.2183 39.3092H42.7817V37.8289H33.2183V39.3092ZM28.5 50V25H41.325L47.5 31.4145V50H28.5ZM40.6283 32.0724H46.075L40.6283 26.4803V32.0724Z" fill="black"/>
<g clip-path="url(#clip2_1_33522)">
<path d="M65.8289 39.3092H71.3224V37.9934H65.8289V39.3092ZM65.8289 42.6974H71.3224V41.3487H65.8289V42.6974ZM65.8947 31.5789H75.5V50H50.5V31.5789H60.1053V25H65.8947V31.5789ZM61.6184 33.0592H64.4145V26.4803H61.6184V33.0592ZM58.8882 41.3487C59.3487 41.3487 59.7379 41.1897 60.0559 40.8717C60.3739 40.5537 60.5329 40.1754 60.5329 39.7368C60.5329 39.2763 60.3739 38.8871 60.0559 38.5691C59.7379 38.2511 59.3596 38.0921 58.9211 38.0921C58.4605 38.0921 58.0713 38.2511 57.7533 38.5691C57.4353 38.8871 57.2763 39.2763 57.2763 39.7368C57.2763 40.1754 57.4353 40.5537 57.7533 40.8717C58.0713 41.1897 58.4496 41.3487 58.8882 41.3487V41.3487ZM55.1053 44.8355H62.5724V44.5395C62.5724 44.1886 62.4846 43.8761 62.3092 43.602C62.1338 43.3279 61.9035 43.136 61.6184 43.0263C61.0044 42.807 60.5 42.659 60.1053 42.5822C59.7105 42.5055 59.3158 42.4671 58.9211 42.4671C58.4825 42.4671 58.0329 42.511 57.5724 42.5987C57.1118 42.6864 56.6184 42.8289 56.0921 43.0263C55.807 43.136 55.5713 43.3279 55.3849 43.602C55.1985 43.8761 55.1053 44.1886 55.1053 44.5395V44.8355Z" fill="black"/>
</g>
<path d="M85.4779 45.3595L81.2162 41.2745L82.2985 40.2614L85.4779 43.268L91.5662 37.3529L92.6485 38.4314L85.4779 45.3595ZM75.5 50V27.2876H79.9647V25H81.6559V27.2876H92.4118V25H94.0691V27.2876H98.5V50H75.5ZM77.0221 48.5294H96.9779V35.1307H77.0221V48.5294Z" fill="black"/>
<path d="M112.5 37.2281C111.018 37.2281 109.798 36.7456 108.839 35.7807C107.881 34.8158 107.402 33.5871 107.402 32.0947C107.402 30.6023 107.881 29.3801 108.839 28.4281C109.798 27.476 111.018 27 112.5 27C113.982 27 115.202 27.476 116.161 28.4281C117.119 29.3801 117.598 30.6023 117.598 32.0947C117.598 33.5871 117.119 34.8158 116.161 35.7807C115.202 36.7456 113.982 37.2281 112.5 37.2281ZM101 49V46.0667C101 45.2433 101.217 44.5228 101.652 43.9053C102.086 43.2877 102.648 42.8117 103.338 42.4772C104.974 41.7567 106.539 41.2164 108.034 40.8561C109.529 40.4959 111.018 40.3158 112.5 40.3158C113.982 40.3158 115.471 40.5023 116.966 40.8754C118.461 41.2485 120.013 41.7953 121.623 42.5158C122.339 42.8503 122.914 43.3199 123.348 43.9246C123.783 44.5292 124 45.2433 124 46.0667V49H101ZM102.725 47.2632H122.275V46.0667C122.275 45.6807 122.147 45.3012 121.892 44.9281C121.636 44.555 121.304 44.2655 120.895 44.0597C119.387 43.3135 117.962 42.7924 116.621 42.4965C115.279 42.2006 113.906 42.0526 112.5 42.0526C111.094 42.0526 109.708 42.2006 108.341 42.4965C106.974 42.7924 105.549 43.3135 104.067 44.0597C103.683 44.2655 103.364 44.555 103.108 44.9281C102.853 45.3012 102.725 45.6807 102.725 46.0667V47.2632ZM112.5 35.4912C113.446 35.4912 114.238 35.1696 114.877 34.5263C115.516 33.883 115.835 33.0725 115.835 32.0947C115.835 31.1427 115.516 30.345 114.877 29.7018C114.238 29.0585 113.446 28.7368 112.5 28.7368C111.554 28.7368 110.762 29.0585 110.123 29.7018C109.484 30.345 109.165 31.1427 109.165 32.0947C109.165 33.0725 109.484 33.883 110.123 34.5263C110.762 35.1696 111.554 35.4912 112.5 35.4912Z" fill="#999999"/>
<path d="M112 37.2281C110.518 37.2281 109.298 36.7456 108.339 35.7807C107.381 34.8158 106.902 33.5871 106.902 32.0947C106.902 30.6023 107.381 29.3801 108.339 28.4281C109.298 27.476 110.518 27 112 27C113.482 27 114.702 27.476 115.661 28.4281C116.619 29.3801 117.098 30.6023 117.098 32.0947C117.098 33.5871 116.619 34.8158 115.661 35.7807C114.702 36.7456 113.482 37.2281 112 37.2281ZM100.5 49V46.0667C100.5 45.2433 100.717 44.5228 101.152 43.9053C101.586 43.2877 102.148 42.8117 102.838 42.4772C104.474 41.7567 106.039 41.2164 107.534 40.8561C109.029 40.4959 110.518 40.3158 112 40.3158C113.482 40.3158 114.971 40.5023 116.466 40.8754C117.961 41.2485 119.513 41.7825 121.123 42.4772C121.839 42.8117 122.414 43.2877 122.848 43.9053C123.283 44.5228 123.5 45.2433 123.5 46.0667V49H100.5Z" fill="black"/>
<defs>
<clipPath id="clip0_1_33522">
<rect width="25" height="25" fill="white" transform="translate(50)"/>
</clipPath>
<clipPath id="clip1_1_33522">
<rect width="25" height="25" fill="white" transform="translate(0 25)"/>
</clipPath>
<clipPath id="clip2_1_33522">
<rect width="25" height="25" fill="white" transform="translate(50.5 25)"/>
</clipPath>
</defs>
</svg>
