<svg width="24" height="24" viewBox="0 0 24 24" fill="none" xmlns="http://www.w3.org/2000/svg">
<path d="M9.66038 11.6029C8.33208 11.6029 7.24528 11.1734 6.4 10.3145C5.55472 9.45554 5.13208 8.35118 5.13208 7.00141C5.13208 5.65163 5.55472 4.54727 6.4 3.68832C7.24528 2.82938 8.33208 2.3999 9.66038 2.3999C10.9887 2.3999 12.0755 2.82938 12.9208 3.68832C13.766 4.54727 14.1887 5.65163 14.1887 7.00141C14.1887 8.35118 13.766 9.45554 12.9208 10.3145C12.0755 11.1734 10.9887 11.6029 9.66038 11.6029ZM0 21.4501V18.5665C0 17.8507 0.176101 17.2065 0.528302 16.6339C0.880503 16.0613 1.38868 15.6216 2.05283 15.3148C3.50189 14.6604 4.84528 14.19 6.08302 13.9037C7.32075 13.6173 8.51321 13.4742 9.66038 13.4742H10.3547C10.234 13.7605 10.1434 14.0417 10.083 14.3178C10.0226 14.5939 9.97233 14.9262 9.93208 15.3148H9.66038C8.49308 15.3148 7.35094 15.4426 6.23396 15.6982C5.11698 15.9539 3.96478 16.3782 2.77736 16.9713C2.45535 17.1349 2.21384 17.365 2.05283 17.6616C1.89182 17.9581 1.81132 18.2598 1.81132 18.5665V19.6095H9.93208C10.0327 19.9776 10.1535 20.31 10.2943 20.6065C10.4352 20.9031 10.6063 21.1843 10.8075 21.4501H0ZM17.7208 22.7999L17.4189 20.7752C17.0767 20.673 16.7296 20.5247 16.3774 20.3304C16.0252 20.1361 15.7283 19.9163 15.4868 19.6709L13.8264 20.039L13.0717 18.7506L14.4906 17.4008C14.4503 17.2167 14.4302 16.9611 14.4302 16.6339C14.4302 16.3067 14.4503 16.051 14.4906 15.867L13.0717 14.5172L13.8264 13.2288L15.4868 13.5969C15.7283 13.3515 16.0252 13.1316 16.3774 12.9373C16.7296 12.7431 17.0767 12.5948 17.4189 12.4925L17.7208 10.4679H19.3509L19.6528 12.4925C19.995 12.5948 20.3421 12.7431 20.6943 12.9373C21.0465 13.1316 21.3434 13.3515 21.5849 13.5969L23.2453 13.2288L24 14.5172L22.5811 15.867C22.6214 16.051 22.6415 16.3067 22.6415 16.6339C22.6415 16.9611 22.6214 17.2167 22.5811 17.4008L24 18.7506L23.2453 20.039L21.5849 19.6709C21.3434 19.9163 21.0465 20.1361 20.6943 20.3304C20.3421 20.5247 19.995 20.673 19.6528 20.7752L19.3509 22.7999H17.7208ZM18.5358 19.088C19.2604 19.088 19.844 18.8631 20.2868 18.4131C20.7296 17.9632 20.9509 17.3701 20.9509 16.6339C20.9509 15.8976 20.7296 15.3046 20.2868 14.8546C19.844 14.4047 19.2604 14.1798 18.5358 14.1798C17.8113 14.1798 17.2277 14.4047 16.7849 14.8546C16.3421 15.3046 16.1208 15.8976 16.1208 16.6339C16.1208 17.3701 16.3421 17.9632 16.7849 18.4131C17.2277 18.8631 17.8113 19.088 18.5358 19.088ZM9.66038 9.76231C10.4453 9.76231 11.0943 9.50156 11.6075 8.98005C12.1208 8.45855 12.3774 7.799 12.3774 7.00141C12.3774 6.20381 12.1208 5.54426 11.6075 5.02276C11.0943 4.50126 10.4453 4.2405 9.66038 4.2405C8.87547 4.2405 8.22642 4.50126 7.71321 5.02276C7.2 5.54426 6.9434 6.20381 6.9434 7.00141C6.9434 7.799 7.2 8.45855 7.71321 8.98005C8.22642 9.50156 8.87547 9.76231 9.66038 9.76231Z" fill="#222222"/>
</svg>
