<svg width="24" height="24" viewBox="0 0 24 24" fill="none" xmlns="http://www.w3.org/2000/svg">
<g clip-path="url(#clip0_972_14903)">
<g filter="url(#filter0_d_972_14903)">
<path d="M16.55 22.5L13 18.95L14.05 17.9L16.525 20.375L21.125 15.775L22.175 16.85L16.55 22.5ZM7.225 16.825L6.175 15.775L7.95 14L6.175 12.225L7.225 11.175L9 12.95L10.775 11.175L11.825 12.225L10.05 14L11.825 15.775L10.775 16.825L9 15.05L7.225 16.825ZM3 22V3.5H6.125V2H7.75V3.5H16.25V2H17.875V3.5H21V13.8L19.5 15.3V9.75H4.5V20.5H12.425L13.925 22H3Z" fill="white"/>
</g>
</g>
<defs>
<filter id="filter0_d_972_14903" x="-7" y="-8" width="39.1758" height="40.5" filterUnits="userSpaceOnUse" color-interpolation-filters="sRGB">
<feFlood flood-opacity="0" result="BackgroundImageFix"/>
<feColorMatrix in="SourceAlpha" type="matrix" values="0 0 0 0 0 0 0 0 0 0 0 0 0 0 0 0 0 0 127 0" result="hardAlpha"/>
<feOffset/>
<feGaussianBlur stdDeviation="5"/>
<feComposite in2="hardAlpha" operator="out"/>
<feColorMatrix type="matrix" values="0 0 0 0 0 0 0 0 0 0 0 0 0 0 0 0 0 0 0.2 0"/>
<feBlend mode="normal" in2="BackgroundImageFix" result="effect1_dropShadow_972_14903"/>
<feBlend mode="normal" in="SourceGraphic" in2="effect1_dropShadow_972_14903" result="shape"/>
</filter>
<clipPath id="clip0_972_14903">
<rect width="24" height="24" fill="white"/>
</clipPath>
</defs>
</svg>
