<svg width="120" height="120" viewBox="0 0 120 120" fill="none" xmlns="http://www.w3.org/2000/svg">
<mask id="path-1-inside-1_736_19892" fill="white">
<path d="M76.1771 80.345C77.0355 79.6499 77.1739 78.3833 76.4053 77.59C74.5728 75.6985 72.4187 74.1396 70.0383 72.9889C67.0564 71.5474 63.793 70.782 60.4812 70.7473C57.1694 70.7126 53.8907 71.4095 50.8793 72.7883C48.4753 73.8889 46.289 75.4023 44.4173 77.255C43.6322 78.0321 43.7441 79.3013 44.5878 80.0142L48.4067 83.2415C49.2504 83.9545 50.5038 83.835 51.3335 83.1058C52.3185 82.2402 53.427 81.5202 54.6258 80.9714C56.4326 80.1442 58.3998 79.726 60.387 79.7468C62.3741 79.7676 64.3321 80.2269 66.1212 81.0918C67.3082 81.6656 68.4015 82.4086 69.3681 83.2947C70.1823 84.0411 71.4329 84.1868 72.2913 83.4916L76.1771 80.345Z"/>
</mask>
<path d="M76.1771 80.345C77.0355 79.6499 77.1739 78.3833 76.4053 77.59C74.5728 75.6985 72.4187 74.1396 70.0383 72.9889C67.0564 71.5474 63.793 70.782 60.4812 70.7473C57.1694 70.7126 53.8907 71.4095 50.8793 72.7883C48.4753 73.8889 46.289 75.4023 44.4173 77.255C43.6322 78.0321 43.7441 79.3013 44.5878 80.0142L48.4067 83.2415C49.2504 83.9545 50.5038 83.835 51.3335 83.1058C52.3185 82.2402 53.427 81.5202 54.6258 80.9714C56.4326 80.1442 58.3998 79.726 60.387 79.7468C62.3741 79.7676 64.3321 80.2269 66.1212 81.0918C67.3082 81.6656 68.4015 82.4086 69.3681 83.2947C70.1823 84.0411 71.4329 84.1868 72.2913 83.4916L76.1771 80.345Z" fill="#DDDDDD" stroke="#222222" stroke-width="4" mask="url(#path-1-inside-1_736_19892)"/>
<mask id="path-2-inside-2_736_19892" fill="white">
<path d="M87.0573 70.5345C87.9157 69.8394 88.0521 68.5759 87.311 67.7568C84.1624 64.2771 80.3679 61.4323 76.1317 59.3845C71.2944 57.046 66.0005 55.8044 60.628 55.7481C55.2554 55.6918 49.9367 56.8224 45.0515 59.059C40.7733 61.0177 36.92 63.7824 33.6993 67.1954C32.9412 67.9988 33.0511 69.2649 33.8948 69.9778L38.1308 73.5575C38.9744 74.2704 40.2312 74.1585 41.0048 73.3701C43.3077 71.0225 46.025 69.1121 49.0253 67.7385C52.6328 66.0868 56.5605 65.252 60.528 65.2935C64.4955 65.3351 68.4048 66.252 71.977 67.9789C74.9478 69.415 77.6245 71.3819 79.8778 73.7771C80.6347 74.5817 81.8889 74.7199 82.7473 74.0247L87.0573 70.5345Z"/>
</mask>
<path d="M87.0573 70.5345C87.9157 69.8394 88.0521 68.5759 87.311 67.7568C84.1624 64.2771 80.3679 61.4323 76.1317 59.3845C71.2944 57.046 66.0005 55.8044 60.628 55.7481C55.2554 55.6918 49.9367 56.8224 45.0515 59.059C40.7733 61.0177 36.92 63.7824 33.6993 67.1954C32.9412 67.9988 33.0511 69.2649 33.8948 69.9778L38.1308 73.5575C38.9744 74.2704 40.2312 74.1585 41.0048 73.3701C43.3077 71.0225 46.025 69.1121 49.0253 67.7385C52.6328 66.0868 56.5605 65.252 60.528 65.2935C64.4955 65.3351 68.4048 66.252 71.977 67.9789C74.9478 69.415 77.6245 71.3819 79.8778 73.7771C80.6347 74.5817 81.8889 74.7199 82.7473 74.0247L87.0573 70.5345Z" fill="#DDDDDD" stroke="#222222" stroke-width="4" mask="url(#path-2-inside-2_736_19892)"/>
<mask id="path-3-inside-3_736_19892" fill="white">
<path d="M99.4921 60.4654C100.35 59.7703 100.486 58.5081 99.7584 57.6768C95.1182 52.373 89.4527 48.0524 83.0958 44.9794C76.1381 41.6159 68.5236 39.8299 60.796 39.749C53.0683 39.668 45.4181 41.2941 38.3915 44.5112C31.9716 47.4504 26.2169 51.6515 21.4667 56.8569C20.7221 57.6728 20.8308 58.9375 21.6745 59.6505L26.3891 63.6346C27.2327 64.3475 28.4912 64.238 29.2432 63.4289C33.0218 59.3637 37.5679 56.0763 42.6261 53.7604C48.2912 51.1667 54.4591 49.8557 60.6895 49.9209C66.9198 49.9862 73.0589 51.4261 78.6684 54.1379C83.6771 56.5591 88.1533 59.941 91.8459 64.0845C92.5808 64.9091 93.8367 65.045 94.6951 64.3499L99.4921 60.4654Z"/>
</mask>
<path d="M99.4921 60.4654C100.35 59.7703 100.486 58.5081 99.7584 57.6768C95.1182 52.373 89.4527 48.0524 83.0958 44.9794C76.1381 41.6159 68.5236 39.8299 60.796 39.749C53.0683 39.668 45.4181 41.2941 38.3915 44.5112C31.9716 47.4504 26.2169 51.6515 21.4667 56.8569C20.7221 57.6728 20.8308 58.9375 21.6745 59.6505L26.3891 63.6346C27.2327 64.3475 28.4912 64.238 29.2432 63.4289C33.0218 59.3637 37.5679 56.0763 42.6261 53.7604C48.2912 51.1667 54.4591 49.8557 60.6895 49.9209C66.9198 49.9862 73.0589 51.4261 78.6684 54.1379C83.6771 56.5591 88.1533 59.941 91.8459 64.0845C92.5808 64.9091 93.8367 65.045 94.6951 64.3499L99.4921 60.4654Z" fill="#DDDDDD" stroke="#222222" stroke-width="4" mask="url(#path-3-inside-3_736_19892)"/>
<circle cx="60" cy="91.7461" r="6" fill="#DDDDDD" stroke="#222222" stroke-width="2"/>
<circle cx="84" cy="58" r="16" fill="#018975" stroke="#222222" stroke-width="2"/>
<path d="M92.0098 50.707L76.4534 66.2634" stroke="white" stroke-width="2" stroke-linecap="round"/>
<path d="M76.0391 50.707L91.5954 66.2634" stroke="white" stroke-width="2" stroke-linecap="round"/>
</svg>
