<svg width="16" height="16" viewBox="0 0 16 16" fill="none" xmlns="http://www.w3.org/2000/svg">
<path d="M8 7.4386C6.96889 7.4386 6.12 7.08772 5.45333 6.38597C4.78667 5.68421 4.45333 4.79064 4.45333 3.70526C4.45333 2.61988 4.78667 1.73099 5.45333 1.0386C6.12 0.346199 6.96889 0 8 0C9.03111 0 9.88 0.346199 10.5467 1.0386C11.2133 1.73099 11.5467 2.61988 11.5467 3.70526C11.5467 4.79064 11.2133 5.68421 10.5467 6.38597C9.88 7.08772 9.03111 7.4386 8 7.4386ZM0 16V13.8667C0 13.2678 0.151111 12.7439 0.453334 12.2947C0.755556 11.8456 1.14667 11.4994 1.62667 11.2561C2.76444 10.7322 3.85333 10.3392 4.89333 10.0772C5.93333 9.81521 6.96889 9.68421 8 9.68421C9.03111 9.68421 10.0667 9.81988 11.1067 10.0912C12.1467 10.3626 13.2267 10.7602 14.3467 11.2842C14.8444 11.5275 15.2444 11.869 15.5467 12.3088C15.8489 12.7485 16 13.2678 16 13.8667V16H0ZM1.2 14.7368H14.8V13.8667C14.8 13.586 14.7111 13.3099 14.5333 13.0386C14.3556 12.7673 14.1244 12.5567 13.84 12.407C12.7911 11.8643 11.8 11.4854 10.8667 11.2702C9.93333 11.055 8.97778 10.9474 8 10.9474C7.02222 10.9474 6.05778 11.055 5.10667 11.2702C4.15556 11.4854 3.16444 11.8643 2.13333 12.407C1.86667 12.5567 1.64444 12.7673 1.46667 13.0386C1.28889 13.3099 1.2 13.586 1.2 13.8667V14.7368ZM8 6.17544C8.65778 6.17544 9.20889 5.94152 9.65333 5.47368C10.0978 5.00585 10.32 4.41638 10.32 3.70526C10.32 3.01287 10.0978 2.43275 9.65333 1.96491C9.20889 1.49708 8.65778 1.26316 8 1.26316C7.34222 1.26316 6.79111 1.49708 6.34667 1.96491C5.90222 2.43275 5.68 3.01287 5.68 3.70526C5.68 4.41638 5.90222 5.00585 6.34667 5.47368C6.79111 5.94152 7.34222 6.17544 8 6.17544Z" fill="black"/>
</svg>
