<svg width="24" height="24" viewBox="0 0 24 24" fill="none" xmlns="http://www.w3.org/2000/svg">
<path d="M4.63636 21V19.3235H6.3L8.59091 11.5838C8.7 11.2299 8.89546 10.9412 9.17727 10.7176C9.45909 10.4941 9.78182 10.3824 10.1455 10.3824H13.8545C14.2182 10.3824 14.5409 10.4941 14.8227 10.7176C15.1045 10.9412 15.3 11.2299 15.4091 11.5838L17.7 19.3235H19.3636V21H4.63636ZM8.04545 19.3235H15.9545L13.8273 12.0588H10.1727L8.04545 19.3235ZM11.1818 7.02941V2H12.8182V7.02941H11.1818ZM17.5909 9.76765L16.4182 8.56618L19.9091 5.01765L21.0545 6.19118L17.5909 9.76765ZM19.0909 15.1324V13.4559H24V15.1324H19.0909ZM6.40909 9.76765L2.94545 6.19118L4.09091 5.01765L7.58182 8.56618L6.40909 9.76765ZM0 15.1324V13.4559H4.90909V15.1324H0Z" fill="#222222"/>
</svg>
