<svg width="24" height="19" viewBox="0 0 24 19" fill="none" xmlns="http://www.w3.org/2000/svg">
<path d="M4.63636 19V17.3235H6.3L8.59091 9.58382C8.7 9.2299 8.89546 8.94118 9.17727 8.71765C9.45909 8.49412 9.78182 8.38235 10.1455 8.38235H13.8545C14.2182 8.38235 14.5409 8.49412 14.8227 8.71765C15.1045 8.94118 15.3 9.2299 15.4091 9.58382L17.7 17.3235H19.3636V19H4.63636ZM8.04545 17.3235H15.9545L13.8273 10.0588H10.1727L8.04545 17.3235ZM11.1818 5.02941V0H12.8182V5.02941H11.1818ZM17.5909 7.76765L16.4182 6.56618L19.9091 3.01765L21.0545 4.19118L17.5909 7.76765ZM19.0909 13.1324V11.4559H24V13.1324H19.0909ZM6.40909 7.76765L2.94545 4.19118L4.09091 3.01765L7.58182 6.56618L6.40909 7.76765ZM0 13.1324V11.4559H4.90909V13.1324H0Z" fill="white"/>
</svg>
