<svg width="32" height="64" viewBox="0 0 32 64" fill="none" xmlns="http://www.w3.org/2000/svg">
<path d="M7 10.1714C7 8.01123 7 6.93112 7.4204 6.10604C7.7902 5.38027 8.38027 4.7902 9.10604 4.4204C9.93112 4 11.0112 4 13.1714 4H18.8286C20.9888 4 22.0689 4 22.894 4.4204C23.6197 4.7902 24.2098 5.38027 24.5796 6.10604C25 6.93112 25 8.01123 25 10.1714V27.1429L16 22L7 27.1429V10.1714Z" stroke="white" stroke-width="1.5" stroke-linecap="round" stroke-linejoin="round"/>
<path d="M7 42.1714C7 40.0112 7 38.9311 7.4204 38.106C7.7902 37.3803 8.38027 36.7902 9.10604 36.4204C9.93112 36 11.0112 36 13.1714 36H18.8286C20.9888 36 22.0689 36 22.894 36.4204C25.1385 37.564 25 39.9802 25 42.1714V59.1429L16 54L7 59.1429V42.1714Z" fill="white" stroke="white" stroke-width="1.5" stroke-linecap="round" stroke-linejoin="round"/>
</svg>
