<svg width="110" height="141" viewBox="0 0 110 141" fill="none" xmlns="http://www.w3.org/2000/svg">
<path d="M41.8063 111.332C50.7393 99.1716 51.4054 87.5816 50.6218 83.3066H66.4896C91.408 113.707 85.8836 133.973 80.0067 140.307H23C25.5467 135.715 32.8733 123.492 41.8063 111.332Z" fill="black"/>
<path d="M99.2107 26.5038C100.58 26.4789 101.821 27.3087 102.193 28.5225C103.186 31.7643 104.568 38.5919 101.793 46.0552C99.6493 51.819 96.7985 55.4537 94.6899 57.5468C95.9082 62.1904 96.0473 66.8646 94.933 71.2085C90.7098 87.6722 70.1011 93.1507 47.6888 86.8813C25.2769 80.6119 9.54776 64.9689 13.7708 48.5054C14.7671 44.6215 16.7852 41.039 19.5812 37.914C18.7701 36.2098 16.4659 30.3655 17.8175 21.215C18.9863 13.3024 23.4515 8.11075 25.8636 5.82158C26.7667 4.9647 28.2384 4.89304 29.4125 5.62927C32.1642 7.3551 37.4061 11.0884 42.7127 17.2704C44.8079 19.7112 47.3268 22.7473 49.5738 25.4844C53.9493 25.4394 58.4693 25.9991 62.9828 27.2617C67.2153 28.4456 71.1392 30.1626 74.6918 32.2799C77.2436 31.3513 79.8674 30.4124 82.1194 29.6421C89.6744 27.0581 96.0013 26.5622 99.2107 26.5038Z" fill="black"/>
<path d="M83.0865 59.832C82.9594 62.984 78.4615 69.7995 67.8829 66.8403C62.3096 65.2813 58.0895 61.5974 58.2753 58.4662C58.4914 54.8235 64.3093 48.782 70.7865 49.6187C77.3998 50.473 83.3655 54.9756 83.0865 59.832Z" fill="#FFFE74"/>
<path d="M27.7206 44.9393C26.4357 47.7755 26.9638 55.9615 36.5462 58.5002C41.5946 59.8376 46.5168 58.6468 47.7467 55.8004C49.1775 52.4889 47.2759 44.3423 41.8369 41.9296C36.2838 39.4662 29.6352 40.5289 27.7206 44.9393Z" fill="#FFFE74"/>
<path d="M74.8828 59.6456C73.8129 64.8202 70.1013 68.3282 67.968 67.8131C65.8347 67.298 63.8577 62.4162 64.9275 57.2416C65.9974 52.0669 69.7091 48.5589 71.8424 49.0741C73.9757 49.5892 75.9527 54.471 74.8828 59.6456Z" fill="#020000"/>
<path d="M32.9447 47.9065C30.9249 52.6329 31.9302 57.5448 33.9122 58.3551C35.8943 59.1654 40.1744 56.4143 42.1943 51.6879C44.2141 46.9614 43.2088 42.0495 41.2268 41.2392C39.2447 40.4289 34.9646 43.18 32.9447 47.9065Z" fill="#020000"/>
</svg>
