<svg width="32" height="44" viewBox="0 0 32 44" fill="none" xmlns="http://www.w3.org/2000/svg">
<path d="M27.3496 2.08008C27.7775 1.89609 28.2599 2.03777 28.5117 2.42969C29.1843 3.47666 30.3767 5.77234 30.333 8.83008C30.2992 11.1914 29.8066 12.8726 29.376 13.9004C30.2752 15.4263 30.8385 17.1016 30.9707 18.8174C31.4714 25.3201 25.5974 29.9406 17.8516 30.5371C10.1058 31.1335 3.42066 27.4801 2.91992 20.9775C2.80179 19.4428 3.03853 17.8865 3.57129 16.3965C3.12586 15.8816 1.75219 14.0606 1.16113 10.5762C0.649831 7.56129 1.4771 5.11027 1.98145 3.97266C2.17026 3.54678 2.62511 3.33286 3.07617 3.44922C4.13335 3.72222 6.19704 4.40304 8.55273 5.96289C9.4826 6.57865 10.6115 7.35692 11.6221 8.06055C12.9935 7.4843 14.4779 7.10945 16.0381 6.98926C17.501 6.87661 18.9266 6.99618 20.2793 7.30859C20.9787 6.64587 21.6995 5.97036 22.3223 5.40332C24.4115 3.50098 26.3466 2.51175 27.3496 2.08008Z" fill="black"/>
<path d="M25.6503 15.0176C25.9794 15.6909 24.7568 14.5565 21.5274 15.5443C18.7958 16.3799 18.7386 18.2714 18.4287 17.5957C18.0681 16.8095 19.0923 15.4571 21.0216 14.8598C22.7203 14.3338 25.3057 14.3124 25.6503 15.0176Z" fill="#FFFE74"/>
<path d="M7.153 17.852C7.07032 18.5894 7.75493 17.1578 10.6633 17.1887C13.1233 17.2149 13.6922 19.0086 13.7586 18.2743C13.8358 17.4199 12.6266 16.4158 10.8871 16.3905C9.35555 16.3681 7.23959 17.0796 7.153 17.852Z" fill="#FFFE74"/>
<path d="M12 44V30L22.938 29C23.7714 39.9333 15.9932 43.5556 12 44Z" fill="black"/>
</svg>
