<svg width="234" height="46" viewBox="0 0 234 46" fill="none" xmlns="http://www.w3.org/2000/svg">
<g filter="url(#filter0_d_18_8344)">
<path d="M28.293 42.4736C27.8878 43.1754 26.8749 43.1754 26.4697 42.4736L21 33H11C5.47715 33 1 28.5228 1 23V11C1 5.47715 5.47715 1 11 1H221C226.523 1 231 5.47715 231 11V23C231 28.5228 226.523 33 221 33H33.7627L28.293 42.4736Z" fill="#666666"/>
</g>
<path d="M31.2689 6.0614C31.598 5.91981 31.9687 6.02869 32.1625 6.32996C32.6799 7.13532 33.5975 8.90153 33.5638 11.2538C33.5378 13.0723 33.1571 14.3657 32.8256 15.1561C33.517 16.3298 33.9525 17.6167 34.0541 18.9364C34.4393 23.9384 29.9216 27.4922 23.9633 27.951C18.0049 28.4099 12.8621 25.5996 12.4769 20.5975C12.3861 19.4176 12.5704 18.2217 12.9799 17.076C12.6392 16.6829 11.5799 15.2817 11.1244 12.5966C10.7312 10.2777 11.3673 8.39265 11.7552 7.51746C11.9005 7.18993 12.2502 7.02476 12.597 7.11414C13.4103 7.32415 14.9977 7.84869 16.8099 9.04871C17.526 9.52289 18.3952 10.1222 19.1732 10.6639C20.228 10.2209 21.3688 9.92919 22.5687 9.83679C23.6939 9.7502 24.79 9.84261 25.8304 10.0829C26.3684 9.57315 26.9228 9.0532 27.4017 8.61707C29.0088 7.15383 30.4974 6.39344 31.2689 6.0614Z" fill="black"/>
<path d="M30.2156 16.9323C30.4542 17.8229 29.9484 20.1642 27.1361 20.3808C25.6544 20.4949 24.3185 19.8838 24.0959 18.9933C23.8369 17.9572 24.7282 15.7016 26.3669 15.2974C28.0399 14.8846 29.8681 15.5519 30.2156 16.9323Z" fill="#FFFE74"/>
<path d="M15.5473 18.2314C15.4788 19.1479 16.3061 21.3765 18.8415 21.1408C20.1772 21.0166 21.2664 20.2005 21.3207 19.2865C21.3839 18.2232 20.2276 16.1409 18.7055 16.0039C17.1514 15.8641 15.6336 16.8143 15.5473 18.2314Z" fill="#FFFE74"/>
<path d="M28.215 17.6881C28.3983 19.2349 27.8001 20.5774 27.2399 20.6438C26.6798 20.7102 25.7842 19.5448 25.6009 17.9979C25.4175 16.4511 26.0157 15.1086 26.5759 15.0422C27.1361 14.9758 28.0316 16.1412 28.215 17.6881Z" fill="#020000"/>
<path d="M17.0648 18.5444C16.98 20.0599 17.643 21.3294 18.1918 21.3601C18.7406 21.3908 19.5411 20.2032 19.6258 18.6877C19.7106 17.1722 19.0476 15.9028 18.4988 15.8721C17.95 15.8414 17.1496 17.029 17.0648 18.5444Z" fill="#020000"/>
<defs>
<filter id="filter0_d_18_8344" x="0" y="0" width="234" height="46" filterUnits="userSpaceOnUse" color-interpolation-filters="sRGB">
<feFlood flood-opacity="0" result="BackgroundImageFix"/>
<feColorMatrix in="SourceAlpha" type="matrix" values="0 0 0 0 0 0 0 0 0 0 0 0 0 0 0 0 0 0 127 0" result="hardAlpha"/>
<feOffset dx="1" dy="1"/>
<feGaussianBlur stdDeviation="1"/>
<feComposite in2="hardAlpha" operator="out"/>
<feColorMatrix type="matrix" values="0 0 0 0 0 0 0 0 0 0 0 0 0 0 0 0 0 0 0.25 0"/>
<feBlend mode="normal" in2="BackgroundImageFix" result="effect1_dropShadow_18_8344"/>
<feBlend mode="normal" in="SourceGraphic" in2="effect1_dropShadow_18_8344" result="shape"/>
</filter>
</defs>
</svg>
