<svg width="24" height="24" viewBox="0 0 24 24" fill="none" xmlns="http://www.w3.org/2000/svg">
<path fill-rule="evenodd" clip-rule="evenodd" d="M21.5996 11.2266C21.5996 10.5168 21.5355 9.83634 21.4183 9.18097H12.0005V13.0491H17.3815C17.15 14.2984 16.4445 15.3582 15.3861 16.0666V18.5751H18.6184C20.5092 16.8349 21.5996 14.2706 21.5996 11.2252V11.2266Z" fill="#4377BC"/>
<path fill-rule="evenodd" clip-rule="evenodd" d="M11.9993 21C14.6989 21 16.9634 20.1048 18.6172 18.5779L15.385 16.0694C14.4897 16.669 13.3435 17.0246 11.9993 17.0246C9.39458 17.0246 7.19002 15.2648 6.40357 12.9013H3.06396V15.4921C4.70937 18.7606 8.09081 21.0014 12.0007 21.0014L11.9993 21Z" fill="#36A053"/>
<path fill-rule="evenodd" clip-rule="evenodd" d="M6.40494 12.8999C6.20554 12.3003 6.09119 11.6589 6.09119 10.9993C6.09119 10.3398 6.20414 9.69974 6.40494 9.09875V6.50793H3.06393C2.38625 7.85912 2 9.38599 2 10.9993C2 12.6127 2.38625 14.1395 3.06393 15.4907L6.40494 12.8999Z" fill="#EFB61A"/>
<path fill-rule="evenodd" clip-rule="evenodd" d="M11.9993 4.97685C13.4676 4.97685 14.7854 5.48163 15.8214 6.47166L18.6897 3.60336C16.9592 1.99142 14.6947 1 11.9993 1C8.09081 1 4.70937 3.24081 3.06396 6.50931L6.40497 9.10012C7.19141 6.7366 9.39597 4.97685 12.0007 4.97685H11.9993Z" fill="#DA4334"/>
</svg>
