<svg width="32" height="32" viewBox="0 0 32 32" fill="none" xmlns="http://www.w3.org/2000/svg">
<path d="M4 25.5555V22.6082H5.52839L9.46913 7.66782C9.65678 7.0456 9.993 6.538 10.4778 6.14502C10.9625 5.75203 11.5177 5.55554 12.1432 5.55554H19.8568C20.4823 5.55554 21.0374 5.75203 21.5222 6.14502C22.007 6.538 22.3432 7.0456 22.5308 7.66782L26.4716 22.6082H28V25.5555H4ZM8.53086 22.6082H23.4691L19.8099 8.50291H12.1901L8.53086 22.6082Z" fill="#666666"/>
<path d="M20 26.8889C20 29.098 18.2091 30.8889 16 30.8889C13.7909 30.8889 12 29.098 12 26.8889C12 26.8889 13.7909 26.8889 16 26.8889C18.2091 26.8889 20 26.8889 20 26.8889Z" fill="#666666"/>
<rect x="13.3333" y="1.55557" width="5.33333" height="2.66667" fill="#666666"/>
</svg>
