<svg width="32" height="32" viewBox="0 0 32 32" fill="none" xmlns="http://www.w3.org/2000/svg">
<path fill-rule="evenodd" clip-rule="evenodd" d="M21.725 19.438H20.5205L20.0936 19.0263C21.5878 17.2882 22.4874 15.0317 22.4874 12.5769C22.4874 7.10332 18.0505 2.6665 12.5769 2.6665C7.10332 2.6665 2.6665 7.10332 2.6665 12.5769C2.6665 18.0505 7.10332 22.4874 12.5769 22.4874C15.0317 22.4874 17.2882 21.5878 19.0263 20.0936L19.438 20.5205V21.725L27.0614 29.3332L29.3332 27.0614L21.725 19.438ZM12.5769 19.438C8.78049 19.438 5.71589 16.3734 5.71589 12.5769C5.71589 8.78049 8.78049 5.71589 12.5769 5.71589C16.3734 5.71589 19.438 8.78049 19.438 12.5769C19.438 16.3734 16.3734 19.438 12.5769 19.438Z" fill="#666666"/>
</svg>
