<svg width="24" height="24" viewBox="0 0 24 24" fill="none" xmlns="http://www.w3.org/2000/svg">
<path d="M11.2297 0.340262C11.643 -0.113421 12.357 -0.113421 12.7703 0.340263L14.1393 1.84286C14.4135 2.14382 14.8379 2.25753 15.2259 2.13399L17.1628 1.51721C17.7476 1.33098 18.3659 1.68796 18.497 2.28753L18.9313 4.27332C19.0183 4.67107 19.3289 4.98173 19.7267 5.06871L21.7125 5.50301C22.312 5.63414 22.669 6.25244 22.4828 6.83725L21.866 8.77414C21.7425 9.16209 21.8562 9.58646 22.1571 9.86067L23.6597 11.2297C24.1134 11.643 24.1134 12.357 23.6597 12.7703L22.1571 14.1393C21.8562 14.4135 21.7425 14.8379 21.866 15.2259L22.4828 17.1627C22.669 17.7476 22.312 18.3659 21.7125 18.497L19.7267 18.9313C19.3289 19.0183 19.0183 19.3289 18.9313 19.7267L18.497 21.7125C18.3659 22.312 17.7476 22.669 17.1627 22.4828L15.2259 21.866C14.8379 21.7425 14.4135 21.8562 14.1393 22.1571L12.7703 23.6597C12.357 24.1134 11.643 24.1134 11.2297 23.6597L9.86067 22.1571C9.58646 21.8562 9.1621 21.7425 8.77415 21.866L6.83725 22.4828C6.25244 22.669 5.63414 22.312 5.50301 21.7125L5.06871 19.7267C4.98173 19.3289 4.67107 19.0183 4.27332 18.9313L2.28753 18.497C1.68796 18.3659 1.33098 17.7476 1.51721 17.1627L2.13399 15.2259C2.25753 14.8379 2.14382 14.4135 1.84286 14.1393L0.340262 12.7703C-0.113421 12.357 -0.113421 11.643 0.340263 11.2297L1.84286 9.86067C2.14382 9.58646 2.25753 9.1621 2.13399 8.77415L1.51721 6.83725C1.33098 6.25244 1.68796 5.63414 2.28753 5.50301L4.27332 5.06871C4.67107 4.98172 4.98173 4.67107 5.06871 4.27332L5.50301 2.28753C5.63414 1.68796 6.25244 1.33098 6.83725 1.51721L8.77415 2.13399C9.1621 2.25753 9.58646 2.14382 9.86067 1.84286L11.2297 0.340262Z" fill="#4599F8"/>
<path d="M16.3242 8.2627C16.7314 7.88983 17.3642 7.91723 17.7373 8.32422C18.1101 8.73141 18.0827 9.36429 17.6757 9.73731L11.124 15.7373C10.7261 16.1017 10.1106 16.0848 9.73335 15.6992L6.28511 12.1689C5.89918 11.7739 5.9057 11.1408 6.30073 10.7549C6.69565 10.3691 7.32882 10.3768 7.71479 10.7715L10.4863 13.6084L16.3242 8.2627Z" fill="white"/>
</svg>
