<svg width="20" height="20" viewBox="0 0 20 20" fill="none" xmlns="http://www.w3.org/2000/svg">
<g clip-path="url(#clip0_1_7320)">
<path d="M9.35806 0.283552C9.70252 -0.0945178 10.2975 -0.0945171 10.6419 0.283553L11.7828 1.53571C12.0113 1.78652 12.3649 1.88127 12.6882 1.77833L14.3023 1.26434C14.7896 1.10915 15.3049 1.40663 15.4142 1.90628L15.7761 3.5611C15.8486 3.89256 16.1074 4.15144 16.4389 4.22393L18.0937 4.58584C18.5934 4.69512 18.8908 5.21037 18.7357 5.69771L18.2217 7.31179C18.1187 7.63508 18.2135 7.98872 18.4643 8.21722L19.7164 9.35806C20.0945 9.70252 20.0945 10.2975 19.7164 10.6419L18.4643 11.7828C18.2135 12.0113 18.1187 12.3649 18.2217 12.6882L18.7357 14.3023C18.8908 14.7896 18.5934 15.3049 18.0937 15.4142L16.4389 15.7761C16.1074 15.8486 15.8486 16.1074 15.7761 16.4389L15.4142 18.0937C15.3049 18.5934 14.7896 18.8908 14.3023 18.7357L12.6882 18.2217C12.3649 18.1187 12.0113 18.2135 11.7828 18.4643L10.6419 19.7164C10.2975 20.0945 9.70252 20.0945 9.35806 19.7164L8.21722 18.4643C7.98872 18.2135 7.63508 18.1187 7.31179 18.2217L5.69771 18.7357C5.21037 18.8908 4.69512 18.5934 4.58584 18.0937L4.22393 16.4389C4.15144 16.1074 3.89255 15.8486 3.5611 15.7761L1.90628 15.4142C1.40663 15.3049 1.10915 14.7896 1.26434 14.3023L1.77833 12.6882C1.88127 12.3649 1.78652 12.0113 1.53571 11.7828L0.283552 10.6419C-0.0945178 10.2975 -0.0945171 9.70252 0.283553 9.35806L1.53571 8.21722C1.78652 7.98872 1.88127 7.63508 1.77833 7.31179L1.26434 5.69771C1.10915 5.21036 1.40663 4.69512 1.90628 4.58584L3.5611 4.22393C3.89256 4.15144 4.15144 3.89255 4.22393 3.5611L4.58584 1.90628C4.69512 1.40663 5.21036 1.10915 5.69771 1.26434L7.31179 1.77833C7.63508 1.88127 7.98872 1.78652 8.21722 1.53571L9.35806 0.283552Z" fill="#D1B0FF"/>
<path d="M9.60144 4.27749C9.73835 3.9075 10.2617 3.9075 10.3986 4.27749L11.7687 7.98022C11.8117 8.09655 11.9035 8.18826 12.0198 8.2313L15.7225 9.60144C16.0925 9.73835 16.0925 10.2617 15.7225 10.3986L12.0198 11.7687C11.9035 11.8117 11.8117 11.9035 11.7687 12.0198L10.3986 15.7225C10.2617 16.0925 9.73835 16.0925 9.60144 15.7225L8.2313 12.0198C8.18826 11.9035 8.09655 11.8117 7.98022 11.7687L4.27749 10.3986C3.9075 10.2617 3.9075 9.73835 4.27749 9.60144L7.98022 8.2313C8.09655 8.18826 8.18826 8.09655 8.2313 7.98022L9.60144 4.27749Z" fill="#7C31E5"/>
</g>
<defs>
<clipPath id="clip0_1_7320">
<rect width="20" height="20" fill="white"/>
</clipPath>
</defs>
</svg>
