<svg width="24" height="24" viewBox="0 0 24 24" fill="none" xmlns="http://www.w3.org/2000/svg">
<path d="M4 23C2.89543 23 2 22.1046 2 21V5.01307C2 3.9085 2.89543 3.01307 4 3.01307H5.88235V1.73529C5.88235 1.3292 6.21156 1 6.61765 1C7.02374 1 7.35294 1.3292 7.35294 1.73529V3.01307H16.7059V1.72059C16.7059 1.32262 17.0285 1 17.4265 1C17.8244 1 18.1471 1.32262 18.1471 1.72059V3.01307H20C21.1046 3.01307 22 3.9085 22 5.01307V21C22 22.1046 21.1046 23 20 23H4ZM4.1556 19.0341C4.17421 20.1252 5.06404 21 6.15531 21H18.1547C19.2726 21 20.1735 20.0836 20.1544 18.9659L20.0335 11.8809C20.0149 10.7898 19.1251 9.91503 18.0338 9.91503H6.03442C4.9165 9.91503 4.01564 10.8314 4.03471 11.9492L4.1556 19.0341Z" fill="#D9D9D9"/>
<rect x="5.5" y="12" width="3" height="2" rx="1" fill="#D9D9D9"/>
<rect x="10.5" y="12" width="3" height="2" rx="1" fill="#D9D9D9"/>
<rect x="15.5" y="12" width="3" height="2" rx="1" fill="#D9D9D9"/>
<rect x="5.5" y="16" width="3" height="2" rx="1" fill="#D9D9D9"/>
<rect x="10.5" y="16" width="3" height="2" rx="1" fill="#D9D9D9"/>
<rect x="15.5" y="16" width="3" height="2" rx="1" fill="#D9D9D9"/>
</svg>
