<svg width="20" height="20" viewBox="0 0 20 20" fill="none" xmlns="http://www.w3.org/2000/svg">
<path d="M9.68123 12.348L9.52523 7.26002L9.50123 6.01202H10.6052L10.5812 7.26002L10.4372 12.348H9.68123ZM10.0532 15.156C9.83723 15.156 9.64923 15.08 9.48923 14.928C9.33723 14.768 9.26123 14.568 9.26123 14.328C9.26123 14.072 9.33723 13.868 9.48923 13.716C9.64923 13.564 9.83723 13.488 10.0532 13.488C10.2772 13.488 10.4652 13.564 10.6172 13.716C10.7692 13.868 10.8452 14.072 10.8452 14.328C10.8452 14.568 10.7692 14.768 10.6172 14.928C10.4652 15.08 10.2772 15.156 10.0532 15.156Z" fill="#ED3964"/>
<circle cx="10" cy="10" r="7.5" stroke="#ED3964"/>
</svg>
