<svg width="64" height="64" viewBox="0 0 64 64" fill="none" xmlns="http://www.w3.org/2000/svg">
<g clip-path="url(#clip0_1_2713)">
<path d="M2.00147 43.2991C2.25644 42.465 2.42495 41.5911 2.78103 40.8042C4.57168 36.8415 8.71274 34.8624 12.9388 35.8955C13.0868 35.9323 13.2363 35.9677 13.3799 36.0016C13.6524 35.3753 13.9001 34.7622 14.1814 34.1654C14.5507 33.3843 15.2159 33.1014 15.8929 33.4064C16.5641 33.71 16.7912 34.4026 16.4776 35.1955C16.2417 35.7938 15.7654 36.4245 15.8402 36.9801C15.9061 37.4605 16.6051 37.8466 17.0095 38.2887C19.3116 40.7983 20.056 43.7279 19.0669 46.9818C18.0763 50.2445 15.7962 52.259 12.5036 53.012C7.70605 54.1084 2.87921 50.719 2.11137 45.7911C2.09818 45.7012 2.0381 45.6201 2 45.5347C2 44.789 2 44.0448 2 43.2991H2.00147ZM10.8184 50.6586C14.2825 50.5539 17.0652 47.6744 16.9729 44.2924C16.8791 40.8514 13.9455 38.0131 10.603 38.131C7.16241 38.2518 4.4354 41.1152 4.52918 44.509C4.62443 47.9691 7.47892 50.7602 10.8184 50.66V50.6586Z" fill="#666666"/>
<path d="M55.587 2C56.4501 2.43473 57.3278 2.83851 58.1675 3.31303C58.6466 3.58418 58.8957 4.10881 58.7067 4.62164C58.5675 4.99447 58.2158 5.37763 57.8598 5.55152C57.5945 5.67973 57.1476 5.53825 56.8238 5.41005C56.2669 5.18752 55.757 4.85153 55.2045 4.61869C54.6433 4.38143 54.129 4.13533 54.0557 3.43829C53.978 2.69999 54.4221 2.30357 55.0009 2.00147C55.1958 2.00147 55.3906 2.00147 55.5855 2.00147L55.587 2Z" fill="#666666"/>
<path d="M32.5257 54.2777C32.0832 53.84 31.6377 53.4038 31.1981 52.9617C28.5649 50.315 25.9287 47.6728 23.3028 45.0187C21.6924 43.3918 21.5474 41.2402 22.9101 39.5676C24.1967 37.9894 26.783 37.6873 28.3114 39.043C29.1803 39.8137 29.891 40.7672 30.549 41.4996C31.4238 40.7613 32.0422 40.1055 32.7851 39.6634C33.2877 39.3643 33.9618 39.323 34.5699 39.2538C34.8732 39.2199 35.0051 39.1432 35.1018 38.8632C35.8315 36.7706 37.5709 35.7818 39.7367 36.1841C39.8891 36.2121 40.1807 36.0618 40.2422 35.9218C41.3119 33.4461 44.5577 32.752 46.4831 34.6692C48.3353 36.5142 50.2579 38.3268 51.8536 40.3855C54.1483 43.3461 54.881 46.8446 54.2084 50.5434C53.2472 55.8427 50.148 59.3928 45.1438 61.2614C43.6902 61.8037 42.1589 61.9908 40.613 61.9938C35.7788 62.0041 30.9461 61.9982 26.1119 61.9967C24.8942 61.9967 24.4238 61.4972 24.4707 60.2667C24.5792 57.34 27.2402 54.6211 30.1592 54.4796C30.93 54.4427 31.7037 54.4737 32.4759 54.4737C32.492 54.4089 32.5081 54.3425 32.5243 54.2777H32.5257ZM27.2695 59.409C27.4468 59.4193 27.5802 59.4355 27.715 59.4355C32.0832 59.4355 36.4514 59.4591 40.8181 59.4178C41.7999 59.409 42.8066 59.2778 43.7576 59.0288C51.1737 57.0865 54.4004 47.8614 49.7303 41.7442C48.2796 39.8447 46.4582 38.2296 44.7716 36.5186C44.2499 35.9896 43.6198 35.994 43.0571 36.3624C42.3406 36.8296 42.2629 37.6224 42.8461 38.5169C43.3224 39.2493 43.2799 39.8992 42.7274 40.3502C42.1809 40.7952 41.5112 40.7141 40.9016 40.1247C40.6203 39.8521 40.3492 39.5706 40.0722 39.295C39.2985 38.5272 38.4809 38.4285 37.8684 39.0268C37.2309 39.6502 37.3247 40.471 38.1277 41.2889C38.3886 41.5541 38.6553 41.8135 38.9117 42.0817C39.5594 42.7581 39.6151 43.5185 39.0612 44.052C38.5307 44.5648 37.7804 44.5 37.1459 43.8737C36.617 43.352 36.107 42.8112 35.5707 42.2969C34.8966 41.6499 34.0453 41.6101 33.4797 42.176C32.9228 42.7331 32.9668 43.5922 33.613 44.2716C34.1391 44.8242 34.69 45.3518 35.2234 45.897C35.7158 46.3995 36.2286 46.8844 36.68 47.4222C37.0566 47.8732 37.0448 48.3993 36.7093 48.8885C36.4001 49.3395 35.937 49.5355 35.4344 49.3763C35.1018 49.2717 34.7853 49.0226 34.5303 48.7692C32.0788 46.3258 29.6448 43.8663 27.2007 41.4156C27.0087 41.224 26.8021 41.0354 26.5706 40.8998C26.0914 40.6198 25.5976 40.6493 25.136 40.9573C24.6685 41.2682 24.4224 41.7339 24.5835 42.2644C24.7081 42.6712 24.9557 43.0823 25.2547 43.3844C28.9635 47.1422 32.6898 50.8824 36.4147 54.624C36.8631 55.0735 37.1225 55.5701 36.8412 56.2023C36.5745 56.7991 36.0733 56.9657 35.452 56.9583C33.931 56.9391 32.41 56.9406 30.8889 56.9553C29.1628 56.9715 27.7677 57.9088 27.2754 59.4119L27.2695 59.409Z" fill="#666666"/>
<path d="M47.0134 9.41405C47.0134 10.0757 47.0104 10.7389 47.0134 11.4005C47.0178 12.3009 46.5064 12.7195 45.6169 12.8477C44.748 12.9729 43.9083 13.306 43.0569 13.5521C42.8518 13.611 42.654 13.7024 42.4474 13.7466C41.7205 13.9043 41.0714 13.5757 40.878 12.9656C40.6596 12.2788 40.9981 11.5803 41.7323 11.3283C42.4107 11.094 43.1009 10.8641 43.8057 10.7477C44.3377 10.6608 44.4827 10.4161 44.4666 9.9372C44.4578 9.6852 44.4827 9.42731 44.5267 9.17826C44.6967 8.21302 45.1978 7.76797 45.9891 7.85934C46.6983 7.94186 47.0647 8.48122 47.0148 9.41405H47.0134Z" fill="#666666"/>
<path d="M61.9997 10.616C61.8356 11.4604 61.7096 12.3491 61.4839 13.2112C61.2788 13.9966 60.6077 14.3812 59.9424 14.2059C59.2434 14.0217 58.8683 13.3512 59.0808 12.5406C59.4149 11.2689 59.4647 10.0074 59.1452 8.72239C58.9753 8.03861 59.3958 7.35778 60.0025 7.19568C60.7117 7.00558 61.3755 7.36368 61.5631 8.1344C61.7565 8.92576 61.8503 9.74216 61.9997 10.616Z" fill="#666666"/>
<path d="M46.873 4.83994C47.128 4.42731 47.2496 4.02942 47.5163 3.83785C48.2534 3.3088 49.0242 2.81218 49.833 2.40398C50.5071 2.06504 51.2002 2.36566 51.505 2.98902C51.8113 3.61385 51.5739 4.25637 50.894 4.67046C50.2477 5.06246 49.6044 5.4574 48.9656 5.86118C48.5289 6.13676 48.0439 6.18981 47.657 5.89065C47.3376 5.64308 47.15 5.22456 46.873 4.83846V4.83994Z" fill="#666666"/>
<path d="M38.8804 14.7012C38.6504 15.0357 38.4892 15.4689 38.1785 15.687C37.4649 16.1896 36.6927 16.6125 35.9204 17.0222C35.3358 17.3317 34.6544 17.1224 34.3262 16.6081C33.9671 16.0451 34.036 15.3216 34.6075 14.937C35.412 14.3976 36.2516 13.8892 37.1308 13.4913C37.9133 13.1361 38.7515 13.7742 38.8804 14.7026V14.7012Z" fill="#666666"/>
<path d="M49.9332 18.605C49.8336 18.577 49.6006 18.5667 49.4306 18.4562C48.6833 17.9713 47.9184 17.5027 47.2296 16.9413C46.6289 16.4535 46.601 15.7166 47.0377 15.1714C47.4744 14.6261 48.1631 14.5657 48.8078 15.0093C49.4628 15.4602 50.1281 15.8979 50.7758 16.3592C51.2462 16.6937 51.4293 17.2861 51.2198 17.8122C51.0132 18.3324 50.6175 18.6109 49.9332 18.6035V18.605Z" fill="#666666"/>
<path d="M26.6918 23.2487C26.3972 23.6996 26.2272 24.0754 25.9562 24.3525C25.4535 24.8682 24.8996 25.3354 24.3516 25.804C23.6966 26.3655 22.9815 26.3581 22.4774 25.807C21.9836 25.2661 22.0422 24.5087 22.6547 23.9354C23.2233 23.4019 23.808 22.8847 24.4029 22.3807C24.819 22.0285 25.3407 21.8693 25.8008 22.1862C26.1496 22.4264 26.3723 22.8552 26.6918 23.2502V23.2487Z" fill="#666666"/>
<path d="M21.1719 28.5351C21.0063 28.8534 20.8861 29.2071 20.6678 29.4842C20.2106 30.0663 19.7109 30.6159 19.2142 31.1656C18.6925 31.7403 17.9833 31.8199 17.4455 31.3881C16.8901 30.9431 16.7963 30.1679 17.2784 29.5593C17.7869 28.9183 18.335 28.3082 18.8845 27.701C19.2757 27.2693 19.7886 27.141 20.319 27.3503C20.8026 27.5404 21.0869 27.9339 21.1719 28.5337V28.5351Z" fill="#666666"/>
<path d="M32.6101 18.638C32.3112 19.0683 32.1339 19.4692 31.835 19.7271C31.2459 20.2355 30.6012 20.6805 29.9593 21.1211C29.3014 21.5736 28.6024 21.4822 28.1892 20.931C27.7525 20.3489 27.8375 19.6121 28.4574 19.1111C29.0933 18.5968 29.763 18.1237 30.4326 17.6536C30.8649 17.3515 31.3763 17.2749 31.7969 17.5917C32.109 17.826 32.2995 18.2239 32.6101 18.6395V18.638Z" fill="#666666"/>
<path d="M55.0758 19.0813C54.3416 19.0695 53.8463 18.6864 53.7291 18.1544C53.6002 17.5634 53.8449 16.9769 54.3812 16.7279C55.171 16.3609 55.9696 16.0161 56.7785 15.6934C57.3383 15.4694 57.9449 15.6889 58.2629 16.1767C58.5853 16.6704 58.5501 17.3321 58.0871 17.7226C57.1771 18.4904 56.0883 18.8824 55.0758 19.0813Z" fill="#666666"/>
<path d="M10.819 50.6586C7.47943 50.7588 4.62494 47.9677 4.52969 44.5075C4.43591 41.1137 7.16292 38.2504 10.6035 38.1295C13.946 38.0116 16.8796 40.8499 16.9734 44.2909C17.0657 47.6729 14.2816 50.5525 10.819 50.6571V50.6586Z" fill="white"/>
<path d="M27.2705 59.4095C27.7643 57.9063 29.1579 56.9691 30.8841 56.9529C32.4051 56.9381 33.9261 56.9367 35.4471 56.9558C36.0684 56.9632 36.5696 56.7967 36.8363 56.1998C37.1176 55.5676 36.8583 55.071 36.4099 54.6215C32.685 50.8799 28.9586 47.1398 25.2498 43.382C24.9509 43.0784 24.7032 42.6687 24.5787 42.262C24.4175 41.7315 24.6637 41.2658 25.1311 40.9548C25.5942 40.6468 26.0865 40.6174 26.5657 40.8974C26.7972 41.0329 27.0053 41.2216 27.1958 41.4131C29.64 43.8638 32.0754 46.3234 34.5254 48.7667C34.7804 49.0202 35.0955 49.2692 35.4296 49.3738C35.9322 49.533 36.3952 49.337 36.7044 48.8861C37.0385 48.3968 37.0517 47.8707 36.6751 47.4198C36.2238 46.8819 35.7109 46.3956 35.2185 45.8945C34.6852 45.3493 34.1342 44.8217 33.6081 44.2691C32.9619 43.5897 32.918 42.7306 33.4748 42.1736C34.0404 41.6077 34.8932 41.6475 35.5658 42.2944C36.1021 42.8087 36.6121 43.351 37.1411 43.8712C37.777 44.496 38.5258 44.5609 39.0563 44.0495C39.6102 43.5161 39.5545 42.7571 38.9068 42.0792C38.6504 41.811 38.3837 41.5517 38.1229 41.2864C37.3198 40.47 37.2261 39.6477 37.8635 39.0243C38.476 38.426 39.2937 38.5248 40.0674 39.2926C40.3443 39.5681 40.6169 39.8496 40.8968 40.1222C41.5063 40.7117 42.176 40.7927 42.7226 40.3477C43.2765 39.8968 43.319 39.2469 42.8413 38.5145C42.2595 37.6199 42.3372 36.8271 43.0523 36.36C43.6164 35.9916 44.2465 35.9886 44.7667 36.5162C46.4533 38.2271 48.2762 39.8422 49.7255 41.7418C54.397 47.8589 51.1688 57.084 43.7527 59.0263C42.8032 59.2754 41.7965 59.405 40.8132 59.4154C36.445 59.4566 32.0783 59.4345 27.7101 59.433C27.5753 59.433 27.442 59.4183 27.2647 59.4065L27.2705 59.4095Z" fill="white"/>
</g>
<defs>
<clipPath id="clip0_1_2713">
<rect width="64" height="64" fill="white"/>
</clipPath>
</defs>
</svg>
