<svg width="24" height="22" viewBox="0 0 24 22" fill="none" xmlns="http://www.w3.org/2000/svg">
<path d="M20.2681 0.0615234C20.5973 -0.0801675 20.9689 0.0285259 21.1626 0.330078C21.68 1.13547 22.5977 2.9017 22.564 5.25391C22.5379 7.07236 22.1572 8.36592 21.8257 9.15625C22.517 10.3298 22.9526 11.617 23.0542 12.9365C23.4391 17.9383 18.9214 21.4922 12.9634 21.9512C7.00504 22.41 1.86223 19.5997 1.47705 14.5977C1.38619 13.4176 1.57055 12.2219 1.97998 11.0762C1.63966 10.6835 0.579157 9.28267 0.123535 6.59668C-0.269827 4.27741 0.36741 2.39166 0.755371 1.5166C0.900732 1.18918 1.25026 1.02467 1.59717 1.11426C2.41043 1.32428 3.9979 1.84786 5.81006 3.04785C6.52627 3.52212 7.39519 4.12226 8.17334 4.66406C9.22801 4.22107 10.3681 3.92932 11.5679 3.83691C12.693 3.75027 13.7892 3.84278 14.8296 4.08301C15.3677 3.57314 15.9227 3.05344 16.4019 2.61719C18.0085 1.15433 19.4964 0.393676 20.2681 0.0615234Z" fill="black"/>
<path d="M19.2153 10.9325C19.4539 11.823 18.9481 14.1643 16.1358 14.3809C14.6541 14.495 13.3182 13.884 13.0956 12.9934C12.8366 11.9573 13.7279 9.70177 15.3666 9.29751C17.0396 8.88476 18.8678 9.55207 19.2153 10.9325Z" fill="#FFFE74"/>
<path d="M4.54698 12.2315C4.47847 13.1481 5.30581 15.3766 7.84119 15.1409C9.17693 15.0167 10.2661 14.2006 10.3204 13.2867C10.3836 12.2233 9.22728 10.141 7.70516 10.004C6.15108 9.86418 4.6333 10.8144 4.54698 12.2315Z" fill="#FFFE74"/>
<path d="M17.2147 11.6882C17.398 13.235 16.7998 14.5775 16.2396 14.6439C15.6795 14.7103 14.7839 13.5449 14.6006 11.9981C14.4172 10.4512 15.0154 9.10873 15.5756 9.04233C16.1358 8.97592 17.0313 10.1414 17.2147 11.6882Z" fill="#020000"/>
<path d="M6.06474 12.5441C5.97995 14.0595 6.64295 15.329 7.19175 15.3597C7.74055 15.3904 8.541 14.2028 8.62579 12.6873C8.71057 11.1719 8.04757 9.90242 7.49877 9.87172C6.94997 9.84102 6.14952 11.0286 6.06474 12.5441Z" fill="#020000"/>
</svg>
