<svg width="24" height="24" viewBox="0 0 24 24" fill="none" xmlns="http://www.w3.org/2000/svg">
<path fill-rule="evenodd" clip-rule="evenodd" d="M16.3333 15.7229C15.6578 15.7229 15.0533 15.994 14.5911 16.4187L8.25333 12.6687C8.29778 12.4608 8.33333 12.253 8.33333 12.0361C8.33333 11.8193 8.29778 11.6114 8.25333 11.4036L14.52 7.68976C15 8.14157 15.6311 8.42169 16.3333 8.42169C17.8089 8.42169 19 7.21084 19 5.71084C19 4.21084 17.8089 3 16.3333 3C14.8578 3 13.6667 4.21084 13.6667 5.71084C13.6667 5.92771 13.7022 6.13554 13.7467 6.34337L7.48 10.0572C7 9.60542 6.36889 9.3253 5.66667 9.3253C4.19111 9.3253 3 10.5361 3 12.0361C3 13.5361 4.19111 14.747 5.66667 14.747C6.36889 14.747 7 14.4669 7.48 14.0151L13.8089 17.7741C13.7644 17.9639 13.7378 18.1627 13.7378 18.3614C13.7378 19.8163 14.9022 21 16.3333 21C17.7644 21 18.9289 19.8163 18.9289 18.3614C18.9289 16.9066 17.7644 15.7229 16.3333 15.7229Z" fill="#666666"/>
</svg>
