<svg width="20" height="20" viewBox="0 0 20 20" fill="none" xmlns="http://www.w3.org/2000/svg">
<path d="M8.99775 0.602158C9.44515 -0.200719 10.5548 -0.200719 11.0022 0.602158L13.4924 5.0708C13.6563 5.36491 13.9309 5.57346 14.2491 5.64549L19.0847 6.73997C19.9535 6.93661 20.2964 8.03973 19.7041 8.73258L16.4076 12.5888C16.1906 12.8426 16.0857 13.1801 16.1185 13.5187L16.6169 18.6638C16.7064 19.5882 15.8087 20.2699 14.9952 19.8953L10.4677 17.8099C10.1697 17.6727 9.83027 17.6727 9.53229 17.8099L5.00479 19.8953C4.19134 20.2699 3.29357 19.5882 3.38312 18.6638L3.88151 13.5187C3.91431 13.1801 3.80941 12.8426 3.59245 12.5888L0.295906 8.73258C-0.296382 8.03973 0.0465336 6.93661 0.915329 6.73997L5.75085 5.64549C6.06911 5.57346 6.34374 5.36491 6.50763 5.0708L8.99775 0.602158Z" fill="#D7D7D7"/>
</svg>
