<svg width="24" height="24" viewBox="0 0 24 24" fill="none" xmlns="http://www.w3.org/2000/svg">
<path d="M11.2297 0.340262C11.643 -0.113421 12.357 -0.113421 12.7703 0.340263L14.1393 1.84286C14.4135 2.14382 14.8379 2.25753 15.2259 2.13399L17.1628 1.51721C17.7476 1.33098 18.3659 1.68796 18.497 2.28753L18.9313 4.27332C19.0183 4.67107 19.3289 4.98173 19.7267 5.06871L21.7125 5.50301C22.312 5.63414 22.669 6.25244 22.4828 6.83725L21.866 8.77414C21.7425 9.16209 21.8562 9.58646 22.1571 9.86067L23.6597 11.2297C24.1134 11.643 24.1134 12.357 23.6597 12.7703L22.1571 14.1393C21.8562 14.4135 21.7425 14.8379 21.866 15.2259L22.4828 17.1627C22.669 17.7476 22.312 18.3659 21.7125 18.497L19.7267 18.9313C19.3289 19.0183 19.0183 19.3289 18.9313 19.7267L18.497 21.7125C18.3659 22.312 17.7476 22.669 17.1627 22.4828L15.2259 21.866C14.8379 21.7425 14.4135 21.8562 14.1393 22.1571L12.7703 23.6597C12.357 24.1134 11.643 24.1134 11.2297 23.6597L9.86067 22.1571C9.58646 21.8562 9.1621 21.7425 8.77415 21.866L6.83725 22.4828C6.25244 22.669 5.63414 22.312 5.50301 21.7125L5.06871 19.7267C4.98173 19.3289 4.67107 19.0183 4.27332 18.9313L2.28753 18.497C1.68796 18.3659 1.33098 17.7476 1.51721 17.1627L2.13399 15.2259C2.25753 14.8379 2.14382 14.4135 1.84286 14.1393L0.340262 12.7703C-0.113421 12.357 -0.113421 11.643 0.340263 11.2297L1.84286 9.86067C2.14382 9.58646 2.25753 9.1621 2.13399 8.77415L1.51721 6.83725C1.33098 6.25244 1.68796 5.63414 2.28753 5.50301L4.27332 5.06871C4.67107 4.98172 4.98173 4.67107 5.06871 4.27332L5.50301 2.28753C5.63414 1.68796 6.25244 1.33098 6.83725 1.51721L8.77415 2.13399C9.1621 2.25753 9.58646 2.14382 9.86067 1.84286L11.2297 0.340262Z" fill="black"/>
<path d="M11.1359 5.48359C11.5216 4.82132 12.4784 4.82132 12.8641 5.48359L14.3645 8.05954C14.5058 8.30214 14.7425 8.47417 15.0169 8.53359L17.9304 9.1645C18.6795 9.3267 18.9752 10.2366 18.4645 10.8081L16.4783 13.0311C16.2912 13.2404 16.2008 13.5188 16.229 13.7981L16.5293 16.764C16.6065 17.5265 15.8325 18.0889 15.1312 17.7798L12.4032 16.5777C12.1463 16.4645 11.8537 16.4645 11.5968 16.5777L8.86883 17.7798C8.16749 18.0889 7.39346 17.5265 7.47067 16.764L7.77096 13.7981C7.79924 13.5188 7.7088 13.2404 7.52174 13.0311L5.5355 10.8081C5.02484 10.2366 5.3205 9.3267 6.06955 9.1645L8.98306 8.53359C9.25745 8.47417 9.49423 8.30214 9.63553 8.05954L11.1359 5.48359Z" fill="#F6AE0D"/>
</svg>
